<svg width="43" height="43" viewBox="0 0 43 43" fill="none" xmlns="http://www.w3.org/2000/svg">
<rect x="1" y="1" width="42" height="42" fill="black"/>
<rect x="0.5" y="0.5" width="41" height="41" fill="white" stroke="black"/>
<path d="M13.73 14.66C13.73 12.692 14.276 11.204 15.368 10.196C16.472 9.2 18.056 8.702 20.12 8.702C22.184 8.702 23.762 9.2 24.854 10.196C25.958 11.204 26.51 12.692 26.51 14.66C26.51 16.616 25.958 18.098 24.854 19.106C23.75 20.114 22.172 20.618 20.12 20.618C18.068 20.618 16.49 20.114 15.386 19.106C14.282 18.098 13.73 16.616 13.73 14.66ZM24.26 16.694C24.62 16.178 24.8 15.5 24.8 14.66C24.8 13.412 24.41 12.482 23.63 11.87C22.85 11.27 21.68 10.97 20.12 10.97C18.884 10.97 17.93 11.222 17.258 11.726L24.26 16.694ZM15.422 14.66C15.422 15.908 15.812 16.832 16.592 17.432C17.372 18.032 18.548 18.332 20.12 18.332C21.332 18.332 22.28 18.092 22.964 17.612L15.926 12.626C15.59 13.166 15.422 13.844 15.422 14.66ZM14 22.3142C14 22.2302 14.024 22.1582 14.072 22.0982C14.12 22.0502 14.18 22.0262 14.252 22.0262C14.324 22.0262 14.408 22.0562 14.504 22.1162L20.264 26.4542L25.736 22.3502C25.832 22.2782 25.922 22.2422 26.006 22.2422C26.078 22.2422 26.132 22.2662 26.168 22.3142C26.216 22.3622 26.24 22.4342 26.24 22.5302L26.24 24.2042C26.24 24.3362 26.222 24.4322 26.186 24.4922C26.162 24.5522 26.108 24.6122 26.024 24.6722L21.974 27.7322L26.024 30.7922C26.108 30.8522 26.162 30.9122 26.186 30.9722C26.222 31.0322 26.24 31.1282 26.24 31.2602L26.24 32.9522C26.24 33.0362 26.216 33.1022 26.168 33.1502C26.132 33.1982 26.078 33.2222 26.006 33.2222C25.922 33.2222 25.832 33.1862 25.736 33.1142L20.264 29.0102L14.504 33.3482C14.408 33.4082 14.324 33.4382 14.252 33.4382C14.18 33.4382 14.12 33.4082 14.072 33.3482C14.024 33.3002 14 33.2342 14 33.1502L14 31.4762C14 31.3562 14.012 31.2662 14.036 31.2062C14.06 31.1462 14.114 31.0862 14.198 31.0262L18.554 27.7322L14.198 24.4562C14.114 24.3962 14.06 24.3362 14.036 24.2762C14.012 24.2162 14 24.1262 14 24.0062L14 22.3142Z" fill="black"/>
</svg>
